<svg width="800" height="800" viewBox="0 0 800 800" fill="none" xmlns="http://www.w3.org/2000/svg">
  <!-- K-like logo mark in blue gradient -->
  <path d="M180 250 L250 180 Q270 160 290 180 L360 250 Q380 270 360 290 L290 360 Q270 380 250 360 L180 290 Q160 270 180 250 Z" fill="url(#blueGradient1)"/>
  <path d="M250 360 L320 290 Q340 270 360 290 L290 360 Q270 380 250 360 Z" fill="url(#blueGradient2)"/>
  <path d="M180 450 L250 520 Q270 540 290 520 L250 480 Q230 460 210 480 L180 450 Z" fill="url(#blueGradient3)"/>
  
  <defs>
    <linearGradient id="blueGradient1" x1="180" y1="180" x2="360" y2="360">
      <stop offset="0%" style="stop-color:#3B82F6;stop-opacity:1" />
      <stop offset="100%" style="stop-color:#2563EB;stop-opacity:1" />
    </linearGradient>
    <linearGradient id="blueGradient2" x1="250" y1="290" x2="360" y2="360">
      <stop offset="0%" style="stop-color:#2563EB;stop-opacity:1" />
      <stop offset="100%" style="stop-color:#1D4ED8;stop-opacity:1" />
    </linearGradient>
    <linearGradient id="blueGradient3" x1="180" y1="450" x2="290" y2="520">
      <stop offset="0%" style="stop-color:#60A5FA;stop-opacity:1" />
      <stop offset="100%" style="stop-color:#3B82F6;stop-opacity:1" />
    </linearGradient>
  </defs>
</svg>
